# xmcd
#
# Track frame offsets:
#	150
#	1030
#	21398
#	40712
#	58025
#	74113
#	100605
#	119925
#	137829
#	154526
#	171543
#	188314
#	209711
#	235995
#	236880
# Disc length: 3460 seconds
# Revision: 1
# Processed by: cddbd v1.5.1PL0 Copyright (c) Steve Scherf et al.
#
# Submitted via: libkcddb 0.10
#
DISCID=d80d820f
DTITLE=Various Artist - Bourbon Street Blues... and Nothin' But the Blues, Volume 1
DYEAR=1900
DGENRE=Unknown
TTITLE0=Introduction: "The Blues and Nothin' But the Blues"
TTITLE1=I Told You So - The Nighthawks
TTITLE2=Cruisin' For a Bluesin - Mike Holloway
TTITLE3=Why Should I Stay - Kenny Neal
TTITLE4=Never Been to Mardi Gras - Miranda Louise
TTITLE5=It's a Three Dog Night - Stacy Mitchhart and Blues-U-Can-Use
TTITLE6=Repossession Blues - Elvin Killerbee
TTITLE7=Too Hot to Handle - Chubby Carrier and The Bayou Swamp Band
TTITLE8=Hey, Hey Mardi Gras - Big Al and The Heavyweights
TTITLE9=Money - Debbie Davies
TTITLE10=Saints Go Marchin' In - Delicious Blues Stew
TTITLE11=She's Got That Stuff - Perry Welsh and The Mighty Johnsons
TTITLE12=Basin Street Blues - Stacy Mitchhart and Blues-U-Can-Use
TTITLE13=Outro: "Time to go"
TTITLE14=Last Call for Alcohol - Microwave Dave and the Nukes
EXTD=A "Lagniappe Productions" Project
EXTD=Produced by Jerrod Cring
EXTD=Associate Producer Debbi White
EXTD=(c) 1998 All rights reserved
EXTD=Unauthorized duplication strictly prohibited
EXTD=Boubon Street Blues and Boogie Bar
EXTD=615-24-BLUES
EXTD=
EXTT0=
EXTT1=
EXTT2=
EXTT3=
EXTT4=
EXTT5=
EXTT6=
EXTT7=
EXTT8=
EXTT9=
EXTT10=
EXTT11=
EXTT12=
EXTT13=
EXTT14=
PLAYORDER=
